<?xml version="1.0" encoding="UTF-8" standalone="no"?>
<!-- Created with Inkscape (http://www.inkscape.org/) -->

<svg
   width="16.834623mm"
   height="2.8447795mm"
   viewBox="0 0 16.834623 2.8447795"
   version="1.1"
   id="svg1"
   xml:space="preserve"
   xmlns="http://www.w3.org/2000/svg"
   xmlns:svg="http://www.w3.org/2000/svg"><defs
     id="defs1" /><g
     id="layer1"
     transform="translate(-94.74978,-36.815887)"><path
       style="font-weight:600;font-size:3.175px;line-height:0;font-family:'SF Compact Display';-inkscape-font-specification:'SF Compact Display Semi-Bold';letter-spacing:0.396875px;stroke-width:0.264583"
       d="m 94.990072,37.439104 h -0.24029 v 0.31626 h 0.23254 v 0.863513 c 0,0.336413 0.13488,0.474389 0.54416,0.474389 0.0822,0 0.15503,-0.0078 0.18603,-0.01395 v -0.302307 c -0.0186,0.0016 -0.0527,0.0031 -0.0868,0.0031 -0.16898,0 -0.23874,-0.04961 -0.23874,-0.21394 v -0.810803 h 0.31936 v -0.31626 h -0.31936 V 37.04533 h -0.39688 z m 1.17048,-0.407727 c 0,0.127124 0.10542,0.21394 0.23099,0.21394 0.12712,0 0.23099,-0.08682 0.23099,-0.21394 0,-0.127124 -0.10387,-0.215491 -0.23099,-0.215491 -0.12557,0 -0.23099,0.08837 -0.23099,0.215491 z m 0.0279,2.052588 h 0.40772 v -1.644861 h -0.40772 z m 0.94412,0 h 0.40618 v -0.998389 c 0,-0.227893 0.13023,-0.331763 0.28991,-0.331763 0.16588,0 0.28835,0.09767 0.28835,0.334864 v 0.995288 h 0.39378 v -0.995288 c 0,-0.21084 0.11007,-0.334864 0.29145,-0.334864 0.17363,0 0.2868,0.110071 0.2868,0.319361 v 1.010791 h 0.40773 v -1.123963 c 0,-0.328662 -0.19689,-0.547253 -0.5364,-0.547253 -0.27595,0 -0.44648,0.142627 -0.50074,0.282153 h -0.0171 c -0.0558,-0.168982 -0.20774,-0.282153 -0.46044,-0.282153 -0.2465,0 -0.38602,0.142627 -0.43098,0.261999 h -0.0217 v -0.235644 h -0.39689 z m 3.554818,0.02945 c 0.44028,0 0.65422,-0.261999 0.69298,-0.525549 h -0.37827 c -0.0341,0.133325 -0.14883,0.21394 -0.31161,0.21394 -0.20774,0 -0.34881,-0.158129 -0.34881,-0.407727 v -0.04496 h 1.05419 v -0.161231 c 0,-0.472839 -0.2775,-0.778247 -0.72554,-0.778247 -0.43252,0 -0.728628,0.285254 -0.728628,0.767395 v 0.150379 c 0,0.503845 0.294558,0.785998 0.745688,0.785998 z m -0.34571,-1.023193 v -0.0031 c 0,-0.210839 0.13177,-0.37362 0.33175,-0.37362 0.19844,0 0.32712,0.16123 0.32712,0.37362 v 0.0031 z m 1.43711,0.230994 c 0,0.47904 0.27596,0.792199 0.73019,0.792199 0.38912,0 0.65267,-0.195337 0.68678,-0.562756 h -0.37672 c -0.0186,0.125574 -0.10697,0.235644 -0.28835,0.235644 -0.21084,0 -0.34262,-0.176733 -0.34262,-0.466638 v -0.130224 c 0,-0.280603 0.12868,-0.454236 0.34107,-0.454236 0.15192,0 0.26044,0.117822 0.28215,0.254248 h 0.37672 c -0.009,-0.31626 -0.262,-0.57981 -0.67748,-0.57981 -0.45889,0 -0.73174,0.319361 -0.73174,0.775147 z m 1.85105,0.762744 h 0.40773 v -0.964282 c 0,-0.20774 0.11627,-0.359668 0.32711,-0.359668 0.17829,0 0.32246,0.100769 0.32246,0.353466 v 0.970484 h 0.40773 v -1.05885 c 0,-0.403077 -0.2372,-0.612366 -0.56896,-0.612366 -0.27285,0 -0.41858,0.153479 -0.47129,0.26665 h -0.017 v -0.823205 h -0.40773 z m 2.6417,0.02945 c 0.44028,0 0.65423,-0.261999 0.69298,-0.525549 h -0.37827 c -0.0341,0.133325 -0.14883,0.21394 -0.31161,0.21394 -0.20774,0 -0.34881,-0.158129 -0.34881,-0.407727 v -0.04496 h 1.0542 v -0.161231 c 0,-0.472839 -0.27751,-0.778247 -0.72554,-0.778247 -0.43253,0 -0.72864,0.285254 -0.72864,0.767395 v 0.150379 c 0,0.503845 0.29456,0.785998 0.74569,0.785998 z m -0.34571,-1.023193 v -0.0031 c 0,-0.210839 0.13177,-0.37362 0.33176,-0.37362 0.19844,0 0.32711,0.16123 0.32711,0.37362 v 0.0031 z m 1.50378,0.993738 h 0.41703 v -0.937927 c 0,-0.220142 0.093,-0.381373 0.36122,-0.381373 0.0636,0 0.12867,0.0047 0.16123,0.01395 v -0.353467 c -0.0326,-0.0062 -0.0744,-0.01085 -0.13023,-0.01085 -0.22479,0 -0.34726,0.145728 -0.38447,0.251148 h -0.017 v -0.226343 h -0.40773 z m 1.34255,0 h 0.41703 v -0.937927 c 0,-0.220142 0.093,-0.381373 0.36122,-0.381373 0.0636,0 0.12868,0.0047 0.16123,0.01395 v -0.353467 c -0.0326,-0.0062 -0.0744,-0.01085 -0.13022,-0.01085 -0.2248,0 -0.34727,0.145728 -0.38448,0.251148 h -0.0171 v -0.226343 h -0.40773 z m 2.81224,-1.644861 h -0.43254 l -0.35811,1.275891 h -0.0155 l -0.35036,-1.275891 h -0.45114 l 0.57051,1.647961 -0.0155,0.05891 c -0.0295,0.151929 -0.11473,0.212391 -0.30076,0.212391 -0.0496,0 -0.10697,-0.0047 -0.13333,-0.0093 v 0.294559 c 0.0496,0.01085 0.13798,0.01705 0.20774,0.01705 0.35657,0 0.55501,-0.131775 0.69764,-0.510047 l 0.0418,-0.113171 c 0.003,-0.0093 0.42478,-1.226282 0.53951,-1.598352 z"
       id="text1"
       aria-label="timecherry" /></g></svg>
